<mxfile host="app.diagrams.net" agent="Mozilla/5.0 (Windows NT 10.0; Win64; x64) AppleWebKit/537.36 (KHTML, like Gecko) Chrome/127.0.0.0 Safari/537.36 Edg/127.0.0.0" version="24.7.6">
  <diagram name="第 1 页" id="PPXbx5kV3rh6wzn9_Yuk">
    <mxGraphModel dx="3000" dy="1763" grid="1" gridSize="18" guides="1" tooltips="1" connect="1" arrows="1" fold="1" page="1" pageScale="1" pageWidth="827" pageHeight="1169" math="0" shadow="0">
      <root>
        <mxCell id="0" />
        <mxCell id="1" parent="0" />
        <mxCell id="7CV5jfCz6AHtWRIZSKS_-5" style="edgeStyle=orthogonalEdgeStyle;rounded=0;orthogonalLoop=1;jettySize=auto;html=1;exitX=1;exitY=0.5;exitDx=0;exitDy=0;entryX=0;entryY=0.5;entryDx=0;entryDy=0;" edge="1" parent="1" source="7CV5jfCz6AHtWRIZSKS_-3" target="7CV5jfCz6AHtWRIZSKS_-4">
          <mxGeometry relative="1" as="geometry" />
        </mxCell>
        <mxCell id="7CV5jfCz6AHtWRIZSKS_-3" value="&lt;font style=&quot;font-size: 20px;&quot;&gt;开始抽奖&lt;/font&gt;" style="rounded=0;whiteSpace=wrap;html=1;fillColor=#fff2cc;strokeColor=#d6b656;" vertex="1" parent="1">
          <mxGeometry x="154" y="180" width="120" height="60" as="geometry" />
        </mxCell>
        <mxCell id="7CV5jfCz6AHtWRIZSKS_-7" style="edgeStyle=orthogonalEdgeStyle;rounded=0;orthogonalLoop=1;jettySize=auto;html=1;entryX=0;entryY=0.5;entryDx=0;entryDy=0;" edge="1" parent="1" source="7CV5jfCz6AHtWRIZSKS_-4">
          <mxGeometry relative="1" as="geometry">
            <mxPoint x="524" y="210" as="targetPoint" />
          </mxGeometry>
        </mxCell>
        <mxCell id="7CV5jfCz6AHtWRIZSKS_-4" value="&lt;font style=&quot;font-size: 19px;&quot;&gt;奖品库存和奖品全量装配&lt;/font&gt;" style="rounded=0;whiteSpace=wrap;html=1;fillColor=#fff2cc;strokeColor=#d6b656;" vertex="1" parent="1">
          <mxGeometry x="344" y="180" width="120" height="60" as="geometry" />
        </mxCell>
        <mxCell id="7CV5jfCz6AHtWRIZSKS_-10" style="edgeStyle=orthogonalEdgeStyle;rounded=0;orthogonalLoop=1;jettySize=auto;html=1;exitX=1;exitY=0.5;exitDx=0;exitDy=0;" edge="1" parent="1" source="7CV5jfCz6AHtWRIZSKS_-9">
          <mxGeometry relative="1" as="geometry">
            <mxPoint x="724" y="210" as="targetPoint" />
          </mxGeometry>
        </mxCell>
        <mxCell id="7CV5jfCz6AHtWRIZSKS_-9" value="&lt;font style=&quot;font-size: 19px;&quot;&gt;抽奖流程开始&lt;/font&gt;" style="rhombus;whiteSpace=wrap;html=1;fillColor=#f8cecc;strokeColor=#b85450;" vertex="1" parent="1">
          <mxGeometry x="524" y="175" width="150" height="70" as="geometry" />
        </mxCell>
        <mxCell id="7CV5jfCz6AHtWRIZSKS_-16" style="edgeStyle=orthogonalEdgeStyle;rounded=0;orthogonalLoop=1;jettySize=auto;html=1;exitX=0.5;exitY=1;exitDx=0;exitDy=0;entryX=0.5;entryY=0;entryDx=0;entryDy=0;" edge="1" parent="1" source="7CV5jfCz6AHtWRIZSKS_-11">
          <mxGeometry relative="1" as="geometry">
            <mxPoint x="799" y="400" as="targetPoint" />
          </mxGeometry>
        </mxCell>
        <mxCell id="7CV5jfCz6AHtWRIZSKS_-11" value="&lt;font style=&quot;font-size: 19px;&quot;&gt;userId 和 strategyId&lt;/font&gt;" style="rounded=0;whiteSpace=wrap;html=1;fillColor=#e1d5e7;strokeColor=#9673a6;" vertex="1" parent="1">
          <mxGeometry x="739" y="300" width="120" height="60" as="geometry" />
        </mxCell>
        <mxCell id="7CV5jfCz6AHtWRIZSKS_-14" style="edgeStyle=orthogonalEdgeStyle;rounded=0;orthogonalLoop=1;jettySize=auto;html=1;exitX=0.5;exitY=1;exitDx=0;exitDy=0;entryX=0.5;entryY=0;entryDx=0;entryDy=0;" edge="1" parent="1" source="7CV5jfCz6AHtWRIZSKS_-13" target="7CV5jfCz6AHtWRIZSKS_-11">
          <mxGeometry relative="1" as="geometry" />
        </mxCell>
        <mxCell id="7CV5jfCz6AHtWRIZSKS_-13" value="&lt;font style=&quot;font-size: 19px;&quot;&gt;参数校验&lt;/font&gt;" style="rhombus;whiteSpace=wrap;html=1;fillColor=#f8cecc;strokeColor=#b85450;" vertex="1" parent="1">
          <mxGeometry x="724" y="175" width="150" height="70" as="geometry" />
        </mxCell>
        <mxCell id="7CV5jfCz6AHtWRIZSKS_-19" style="edgeStyle=orthogonalEdgeStyle;rounded=0;orthogonalLoop=1;jettySize=auto;html=1;exitX=0.5;exitY=1;exitDx=0;exitDy=0;" edge="1" parent="1" source="7CV5jfCz6AHtWRIZSKS_-17" target="7CV5jfCz6AHtWRIZSKS_-18">
          <mxGeometry relative="1" as="geometry" />
        </mxCell>
        <mxCell id="7CV5jfCz6AHtWRIZSKS_-24" value="" style="edgeStyle=orthogonalEdgeStyle;rounded=0;orthogonalLoop=1;jettySize=auto;html=1;" edge="1" parent="1" source="7CV5jfCz6AHtWRIZSKS_-17" target="7CV5jfCz6AHtWRIZSKS_-22">
          <mxGeometry relative="1" as="geometry" />
        </mxCell>
        <mxCell id="7CV5jfCz6AHtWRIZSKS_-17" value="&lt;font style=&quot;font-size: 16px;&quot;&gt;是否有一个为 null&lt;/font&gt;" style="rhombus;whiteSpace=wrap;html=1;fillColor=#f8cecc;strokeColor=#b85450;" vertex="1" parent="1">
          <mxGeometry x="724" y="400" width="150" height="70" as="geometry" />
        </mxCell>
        <mxCell id="7CV5jfCz6AHtWRIZSKS_-18" value="&lt;font style=&quot;font-size: 21px;&quot;&gt;结束&lt;/font&gt;" style="rounded=0;whiteSpace=wrap;html=1;fillColor=#dae8fc;strokeColor=#6c8ebf;" vertex="1" parent="1">
          <mxGeometry x="739" y="510" width="120" height="60" as="geometry" />
        </mxCell>
        <mxCell id="7CV5jfCz6AHtWRIZSKS_-20" value="&lt;font style=&quot;font-size: 20px;&quot; color=&quot;#3399ff&quot;&gt;是&lt;/font&gt;" style="text;strokeColor=none;align=center;fillColor=none;html=1;verticalAlign=middle;whiteSpace=wrap;rounded=0;" vertex="1" parent="1">
          <mxGeometry x="787" y="470" width="60" height="30" as="geometry" />
        </mxCell>
        <mxCell id="7CV5jfCz6AHtWRIZSKS_-35" value="" style="edgeStyle=orthogonalEdgeStyle;rounded=0;orthogonalLoop=1;jettySize=auto;html=1;" edge="1" parent="1" source="7CV5jfCz6AHtWRIZSKS_-22" target="7CV5jfCz6AHtWRIZSKS_-34">
          <mxGeometry relative="1" as="geometry" />
        </mxCell>
        <mxCell id="7CV5jfCz6AHtWRIZSKS_-22" value="&lt;font style=&quot;font-size: 19px;&quot;&gt;责任链抽奖计算&lt;/font&gt;" style="rounded=0;whiteSpace=wrap;html=1;fillColor=#fff2cc;strokeColor=#d6b656;" vertex="1" parent="1">
          <mxGeometry x="917" y="405" width="120" height="60" as="geometry" />
        </mxCell>
        <mxCell id="7CV5jfCz6AHtWRIZSKS_-33" value="" style="edgeStyle=orthogonalEdgeStyle;rounded=0;orthogonalLoop=1;jettySize=auto;html=1;" edge="1" parent="1" source="7CV5jfCz6AHtWRIZSKS_-25" target="7CV5jfCz6AHtWRIZSKS_-3">
          <mxGeometry relative="1" as="geometry" />
        </mxCell>
        <mxCell id="7CV5jfCz6AHtWRIZSKS_-25" value="Actor" style="shape=umlActor;verticalLabelPosition=bottom;verticalAlign=top;html=1;strokeWidth=3;perimeterSpacing=1;" vertex="1" parent="1">
          <mxGeometry x="55" y="180" width="30" height="60" as="geometry" />
        </mxCell>
        <mxCell id="7CV5jfCz6AHtWRIZSKS_-34" value="&lt;font style=&quot;font-size: 20px;&quot;&gt;构建责任链&lt;/font&gt;" style="rounded=0;whiteSpace=wrap;html=1;fillColor=#ffe6cc;strokeColor=#d79b00;" vertex="1" parent="1">
          <mxGeometry x="1106" y="405" width="120" height="60" as="geometry" />
        </mxCell>
        <mxCell id="7CV5jfCz6AHtWRIZSKS_-41" value="" style="endArrow=classic;html=1;rounded=0;curved=0;strokeWidth=3;" edge="1" parent="1">
          <mxGeometry width="50" height="50" relative="1" as="geometry">
            <mxPoint x="1226" y="440" as="sourcePoint" />
            <mxPoint x="1315" y="440" as="targetPoint" />
          </mxGeometry>
        </mxCell>
        <mxCell id="7CV5jfCz6AHtWRIZSKS_-52" value="" style="edgeStyle=orthogonalEdgeStyle;rounded=0;orthogonalLoop=1;jettySize=auto;html=1;" edge="1" parent="1" source="7CV5jfCz6AHtWRIZSKS_-49" target="7CV5jfCz6AHtWRIZSKS_-50">
          <mxGeometry relative="1" as="geometry" />
        </mxCell>
        <mxCell id="7CV5jfCz6AHtWRIZSKS_-56" value="" style="edgeStyle=orthogonalEdgeStyle;rounded=0;orthogonalLoop=1;jettySize=auto;html=1;" edge="1" parent="1" source="7CV5jfCz6AHtWRIZSKS_-49" target="7CV5jfCz6AHtWRIZSKS_-55">
          <mxGeometry relative="1" as="geometry" />
        </mxCell>
        <mxCell id="7CV5jfCz6AHtWRIZSKS_-49" value="&lt;font style=&quot;font-size: 20px;&quot;&gt;黑名单规则过滤责任链&lt;/font&gt;" style="rounded=0;whiteSpace=wrap;html=1;fillColor=#fff2cc;strokeColor=#d6b656;" vertex="1" parent="1">
          <mxGeometry x="1315" y="412" width="120" height="60" as="geometry" />
        </mxCell>
        <mxCell id="7CV5jfCz6AHtWRIZSKS_-53" value="" style="edgeStyle=orthogonalEdgeStyle;rounded=0;orthogonalLoop=1;jettySize=auto;html=1;" edge="1" parent="1" source="7CV5jfCz6AHtWRIZSKS_-50" target="7CV5jfCz6AHtWRIZSKS_-51">
          <mxGeometry relative="1" as="geometry" />
        </mxCell>
        <mxCell id="7CV5jfCz6AHtWRIZSKS_-66" value="" style="edgeStyle=orthogonalEdgeStyle;rounded=0;orthogonalLoop=1;jettySize=auto;html=1;" edge="1" parent="1" source="7CV5jfCz6AHtWRIZSKS_-50" target="7CV5jfCz6AHtWRIZSKS_-65">
          <mxGeometry relative="1" as="geometry" />
        </mxCell>
        <mxCell id="7CV5jfCz6AHtWRIZSKS_-50" value="&lt;font style=&quot;font-size: 20px;&quot;&gt;权重规则过滤责任链&lt;/font&gt;" style="rounded=0;whiteSpace=wrap;html=1;fillColor=#fff2cc;strokeColor=#d6b656;" vertex="1" parent="1">
          <mxGeometry x="1315" y="502" width="120" height="60" as="geometry" />
        </mxCell>
        <mxCell id="7CV5jfCz6AHtWRIZSKS_-101" value="" style="edgeStyle=orthogonalEdgeStyle;shape=connector;rounded=0;orthogonalLoop=1;jettySize=auto;html=1;strokeColor=default;align=center;verticalAlign=middle;fontFamily=Helvetica;fontSize=11;fontColor=default;labelBackgroundColor=default;elbow=vertical;endArrow=classic;" edge="1" parent="1" source="7CV5jfCz6AHtWRIZSKS_-51" target="7CV5jfCz6AHtWRIZSKS_-100">
          <mxGeometry relative="1" as="geometry" />
        </mxCell>
        <mxCell id="7CV5jfCz6AHtWRIZSKS_-51" value="&lt;font style=&quot;font-size: 18px;&quot;&gt;默认规则过滤责任链(抽奖兜底)&lt;/font&gt;" style="rounded=0;whiteSpace=wrap;html=1;fillColor=#fff2cc;strokeColor=#d6b656;" vertex="1" parent="1">
          <mxGeometry x="1315" y="592" width="120" height="60" as="geometry" />
        </mxCell>
        <mxCell id="7CV5jfCz6AHtWRIZSKS_-55" value="&lt;font style=&quot;font-size: 18px;&quot;&gt;获取 rule_value 字段，判断用户是否为黑名单用户&lt;/font&gt;" style="rounded=0;whiteSpace=wrap;html=1;fillColor=#f8cecc;strokeColor=#b85450;" vertex="1" parent="1">
          <mxGeometry x="1505" y="412" width="205" height="60" as="geometry" />
        </mxCell>
        <mxCell id="7CV5jfCz6AHtWRIZSKS_-57" value="" style="strokeWidth=2;html=1;shape=mxgraph.flowchart.annotation_2;align=left;labelPosition=right;pointerEvents=1;" vertex="1" parent="1">
          <mxGeometry x="1711" y="385" width="50" height="100" as="geometry" />
        </mxCell>
        <mxCell id="7CV5jfCz6AHtWRIZSKS_-58" value="&lt;font style=&quot;font-size: 20px;&quot; color=&quot;#3399ff&quot;&gt;是&lt;/font&gt;" style="text;strokeColor=none;align=center;fillColor=none;html=1;verticalAlign=middle;whiteSpace=wrap;rounded=0;" vertex="1" parent="1">
          <mxGeometry x="1721" y="360" width="60" height="30" as="geometry" />
        </mxCell>
        <mxCell id="7CV5jfCz6AHtWRIZSKS_-59" value="&lt;font style=&quot;font-size: 20px;&quot; color=&quot;#3399ff&quot;&gt;否&lt;/font&gt;" style="text;strokeColor=none;align=center;fillColor=none;html=1;verticalAlign=middle;whiteSpace=wrap;rounded=0;" vertex="1" parent="1">
          <mxGeometry x="1721" y="485" width="60" height="30" as="geometry" />
        </mxCell>
        <mxCell id="7CV5jfCz6AHtWRIZSKS_-112" value="" style="edgeStyle=orthogonalEdgeStyle;shape=connector;rounded=0;orthogonalLoop=1;jettySize=auto;html=1;strokeColor=default;align=center;verticalAlign=middle;fontFamily=Helvetica;fontSize=11;fontColor=default;labelBackgroundColor=default;elbow=vertical;endArrow=classic;" edge="1" parent="1" source="7CV5jfCz6AHtWRIZSKS_-60" target="7CV5jfCz6AHtWRIZSKS_-105">
          <mxGeometry relative="1" as="geometry" />
        </mxCell>
        <mxCell id="7CV5jfCz6AHtWRIZSKS_-60" value="&lt;font style=&quot;font-size: 20px;&quot;&gt;返回奖品id&lt;/font&gt;" style="rounded=0;whiteSpace=wrap;html=1;fillColor=#dae8fc;strokeColor=#6c8ebf;" vertex="1" parent="1">
          <mxGeometry x="1761" y="352" width="120" height="60" as="geometry" />
        </mxCell>
        <mxCell id="7CV5jfCz6AHtWRIZSKS_-62" style="rounded=0;orthogonalLoop=1;jettySize=auto;html=1;entryX=1;entryY=0.5;entryDx=0;entryDy=0;edgeStyle=orthogonalEdgeStyle;elbow=vertical;curved=1;" edge="1" parent="1" source="7CV5jfCz6AHtWRIZSKS_-61" target="7CV5jfCz6AHtWRIZSKS_-50">
          <mxGeometry relative="1" as="geometry" />
        </mxCell>
        <mxCell id="7CV5jfCz6AHtWRIZSKS_-61" value="&lt;font style=&quot;font-size: 21px;&quot;&gt;继续后续责任链过滤&lt;/font&gt;" style="rounded=0;whiteSpace=wrap;html=1;fillColor=#fff2cc;strokeColor=#d6b656;" vertex="1" parent="1">
          <mxGeometry x="1761" y="455" width="120" height="60" as="geometry" />
        </mxCell>
        <mxCell id="7CV5jfCz6AHtWRIZSKS_-63" value="&lt;font style=&quot;font-size: 20px;&quot;&gt;开始规则树抽奖过滤&lt;/font&gt;" style="rounded=1;whiteSpace=wrap;html=1;fillColor=#f8cecc;strokeColor=#b85450;" vertex="1" parent="1">
          <mxGeometry x="1746" y="592" width="216" height="60" as="geometry" />
        </mxCell>
        <mxCell id="7CV5jfCz6AHtWRIZSKS_-69" value="" style="edgeStyle=orthogonalEdgeStyle;rounded=0;orthogonalLoop=1;jettySize=auto;html=1;" edge="1" parent="1" source="7CV5jfCz6AHtWRIZSKS_-65" target="7CV5jfCz6AHtWRIZSKS_-68">
          <mxGeometry relative="1" as="geometry" />
        </mxCell>
        <mxCell id="7CV5jfCz6AHtWRIZSKS_-65" value="&lt;font style=&quot;font-size: 18px;&quot;&gt;获取 rule_value 字段，并且拆分&lt;/font&gt;" style="rounded=0;whiteSpace=wrap;html=1;fillColor=#fff2cc;strokeColor=#d6b656;" vertex="1" parent="1">
          <mxGeometry x="1106" y="502" width="120" height="60" as="geometry" />
        </mxCell>
        <mxCell id="7CV5jfCz6AHtWRIZSKS_-71" value="" style="edgeStyle=orthogonalEdgeStyle;rounded=0;orthogonalLoop=1;jettySize=auto;html=1;" edge="1" parent="1" source="7CV5jfCz6AHtWRIZSKS_-68" target="7CV5jfCz6AHtWRIZSKS_-70">
          <mxGeometry relative="1" as="geometry" />
        </mxCell>
        <mxCell id="7CV5jfCz6AHtWRIZSKS_-75" style="edgeStyle=orthogonalEdgeStyle;rounded=0;orthogonalLoop=1;jettySize=auto;html=1;entryX=0.5;entryY=0;entryDx=0;entryDy=0;" edge="1" parent="1" source="7CV5jfCz6AHtWRIZSKS_-68" target="7CV5jfCz6AHtWRIZSKS_-74">
          <mxGeometry relative="1" as="geometry" />
        </mxCell>
        <mxCell id="7CV5jfCz6AHtWRIZSKS_-68" value="&lt;font style=&quot;font-size: 17px;&quot;&gt;rule_value 字段配置错误，或者为 null&lt;/font&gt;" style="rounded=0;whiteSpace=wrap;html=1;fillColor=#f8cecc;strokeColor=#b85450;" vertex="1" parent="1">
          <mxGeometry x="1106" y="612" width="120" height="60" as="geometry" />
        </mxCell>
        <mxCell id="7CV5jfCz6AHtWRIZSKS_-70" value="&lt;font style=&quot;font-size: 19px;&quot;&gt;返回 null 值，并且报错&lt;/font&gt;" style="rounded=0;whiteSpace=wrap;html=1;fillColor=#dae8fc;strokeColor=#6c8ebf;" vertex="1" parent="1">
          <mxGeometry x="951" y="756" width="174" height="72" as="geometry" />
        </mxCell>
        <mxCell id="7CV5jfCz6AHtWRIZSKS_-72" value="&lt;font style=&quot;font-size: 20px;&quot; color=&quot;#3399ff&quot;&gt;是&lt;/font&gt;" style="text;strokeColor=none;align=center;fillColor=none;html=1;verticalAlign=middle;whiteSpace=wrap;rounded=0;" vertex="1" parent="1">
          <mxGeometry x="1077" y="684" width="60" height="30" as="geometry" />
        </mxCell>
        <mxCell id="7CV5jfCz6AHtWRIZSKS_-82" value="" style="edgeStyle=orthogonalEdgeStyle;rounded=0;orthogonalLoop=1;jettySize=auto;html=1;" edge="1" parent="1" source="7CV5jfCz6AHtWRIZSKS_-74" target="7CV5jfCz6AHtWRIZSKS_-81">
          <mxGeometry relative="1" as="geometry" />
        </mxCell>
        <mxCell id="7CV5jfCz6AHtWRIZSKS_-74" value="&lt;font style=&quot;font-size: 18px;&quot;&gt;解析数据格式；判断哪个范围符合用户的特定抽奖范围&lt;/font&gt;" style="rounded=0;whiteSpace=wrap;html=1;fillColor=#dae8fc;strokeColor=#6c8ebf;" vertex="1" parent="1">
          <mxGeometry x="1195" y="756" width="170" height="72" as="geometry" />
        </mxCell>
        <mxCell id="7CV5jfCz6AHtWRIZSKS_-76" value="&lt;font color=&quot;#3399ff&quot; style=&quot;font-size: 20px;&quot;&gt;否&lt;/font&gt;" style="text;strokeColor=none;align=center;fillColor=none;html=1;verticalAlign=middle;whiteSpace=wrap;rounded=0;" vertex="1" parent="1">
          <mxGeometry x="1185" y="684" width="60" height="30" as="geometry" />
        </mxCell>
        <mxCell id="7CV5jfCz6AHtWRIZSKS_-84" value="" style="edgeStyle=orthogonalEdgeStyle;rounded=0;orthogonalLoop=1;jettySize=auto;html=1;" edge="1" parent="1" source="7CV5jfCz6AHtWRIZSKS_-81" target="7CV5jfCz6AHtWRIZSKS_-83">
          <mxGeometry relative="1" as="geometry" />
        </mxCell>
        <mxCell id="7CV5jfCz6AHtWRIZSKS_-95" value="" style="edgeStyle=orthogonalEdgeStyle;rounded=0;orthogonalLoop=1;jettySize=auto;html=1;" edge="1" parent="1" source="7CV5jfCz6AHtWRIZSKS_-81" target="7CV5jfCz6AHtWRIZSKS_-74">
          <mxGeometry relative="1" as="geometry" />
        </mxCell>
        <mxCell id="7CV5jfCz6AHtWRIZSKS_-81" value="&lt;font style=&quot;font-size: 19px;&quot;&gt;找出最小符合的值，也就是【4500 积分，能找到 4000:102,103,104,105】、【5000 积分，能找到 5000:102,103,104,105,106,107】&lt;/font&gt;" style="rounded=0;whiteSpace=wrap;html=1;fillColor=#fff2cc;strokeColor=#d6b656;" vertex="1" parent="1">
          <mxGeometry x="1076.5" y="936" width="407" height="96" as="geometry" />
        </mxCell>
        <mxCell id="7CV5jfCz6AHtWRIZSKS_-91" style="edgeStyle=orthogonalEdgeStyle;rounded=0;orthogonalLoop=1;jettySize=auto;html=1;entryX=0.5;entryY=0;entryDx=0;entryDy=0;" edge="1" parent="1" source="7CV5jfCz6AHtWRIZSKS_-83" target="7CV5jfCz6AHtWRIZSKS_-90">
          <mxGeometry relative="1" as="geometry" />
        </mxCell>
        <mxCell id="7CV5jfCz6AHtWRIZSKS_-83" value="&lt;font style=&quot;font-size: 20px;&quot;&gt;找到最小符合值&lt;/font&gt;" style="rounded=0;whiteSpace=wrap;html=1;fillColor=#f8cecc;strokeColor=#b85450;" vertex="1" parent="1">
          <mxGeometry x="1185" y="1098" width="192" height="71" as="geometry" />
        </mxCell>
        <mxCell id="7CV5jfCz6AHtWRIZSKS_-94" style="edgeStyle=orthogonalEdgeStyle;rounded=0;orthogonalLoop=1;jettySize=auto;html=1;entryX=0.5;entryY=1;entryDx=0;entryDy=0;elbow=vertical;strokeWidth=1;" edge="1" parent="1" source="7CV5jfCz6AHtWRIZSKS_-85" target="7CV5jfCz6AHtWRIZSKS_-51">
          <mxGeometry relative="1" as="geometry">
            <Array as="points">
              <mxPoint x="1080" y="1602" />
              <mxPoint x="1692" y="1602" />
              <mxPoint x="1692" y="702" />
              <mxPoint x="1375" y="702" />
            </Array>
          </mxGeometry>
        </mxCell>
        <mxCell id="7CV5jfCz6AHtWRIZSKS_-85" value="&lt;font style=&quot;font-size: 19px;&quot;&gt;继续过滤后续责任链规则&lt;/font&gt;" style="rounded=0;whiteSpace=wrap;html=1;fillColor=#fff2cc;strokeColor=#d6b656;" vertex="1" parent="1">
          <mxGeometry x="974" y="1278" width="211" height="78" as="geometry" />
        </mxCell>
        <mxCell id="7CV5jfCz6AHtWRIZSKS_-87" style="edgeStyle=orthogonalEdgeStyle;rounded=0;orthogonalLoop=1;jettySize=auto;html=1;entryX=0.684;entryY=0;entryDx=0;entryDy=0;entryPerimeter=0;" edge="1" parent="1" source="7CV5jfCz6AHtWRIZSKS_-83" target="7CV5jfCz6AHtWRIZSKS_-85">
          <mxGeometry relative="1" as="geometry" />
        </mxCell>
        <mxCell id="7CV5jfCz6AHtWRIZSKS_-88" value="&lt;font color=&quot;#3399ff&quot; style=&quot;font-size: 20px;&quot;&gt;否·&lt;/font&gt;" style="text;strokeColor=none;align=center;fillColor=none;html=1;verticalAlign=middle;whiteSpace=wrap;rounded=0;" vertex="1" parent="1">
          <mxGeometry x="1166" y="1188" width="60" height="36" as="geometry" />
        </mxCell>
        <mxCell id="7CV5jfCz6AHtWRIZSKS_-111" value="" style="edgeStyle=orthogonalEdgeStyle;shape=connector;rounded=0;orthogonalLoop=1;jettySize=auto;html=1;strokeColor=default;align=center;verticalAlign=middle;fontFamily=Helvetica;fontSize=11;fontColor=default;labelBackgroundColor=default;elbow=vertical;endArrow=classic;" edge="1" parent="1" source="7CV5jfCz6AHtWRIZSKS_-90" target="7CV5jfCz6AHtWRIZSKS_-110">
          <mxGeometry relative="1" as="geometry" />
        </mxCell>
        <mxCell id="7CV5jfCz6AHtWRIZSKS_-90" value="&lt;font style=&quot;font-size: 20px;&quot;&gt;返回奖品 id&lt;/font&gt;" style="rounded=0;whiteSpace=wrap;html=1;fillColor=#fff2cc;strokeColor=#d6b656;" vertex="1" parent="1">
          <mxGeometry x="1347" y="1278" width="234" height="78" as="geometry" />
        </mxCell>
        <mxCell id="7CV5jfCz6AHtWRIZSKS_-92" value="&lt;font style=&quot;font-size: 20px;&quot; color=&quot;#3399ff&quot;&gt;是&lt;/font&gt;" style="text;strokeColor=none;align=center;fillColor=none;html=1;verticalAlign=middle;whiteSpace=wrap;rounded=0;" vertex="1" parent="1">
          <mxGeometry x="1365" y="1188" width="60" height="30" as="geometry" />
        </mxCell>
        <mxCell id="7CV5jfCz6AHtWRIZSKS_-102" style="edgeStyle=orthogonalEdgeStyle;rounded=0;orthogonalLoop=1;jettySize=auto;html=1;exitX=1;exitY=0.5;exitDx=0;exitDy=0;strokeColor=default;align=center;verticalAlign=middle;fontFamily=Helvetica;fontSize=11;fontColor=default;labelBackgroundColor=default;elbow=vertical;endArrow=classic;curved=1;" edge="1" parent="1" source="7CV5jfCz6AHtWRIZSKS_-100" target="7CV5jfCz6AHtWRIZSKS_-63">
          <mxGeometry relative="1" as="geometry" />
        </mxCell>
        <mxCell id="7CV5jfCz6AHtWRIZSKS_-100" value="&lt;font style=&quot;font-size: 19px;&quot;&gt;返回随机奖品 id&lt;/font&gt;" style="rounded=0;whiteSpace=wrap;html=1;fillColor=#dae8fc;strokeColor=#6c8ebf;" vertex="1" parent="1">
          <mxGeometry x="1510" y="590" width="144" height="64" as="geometry" />
        </mxCell>
        <mxCell id="7CV5jfCz6AHtWRIZSKS_-105" value="&lt;font style=&quot;font-size: 20px;&quot;&gt;响应 RaffleAwardEntity（奖品ID，奖品配置信息，排序编号） 实体&lt;/font&gt;" style="rounded=0;whiteSpace=wrap;html=1;fillColor=#dae8fc;strokeColor=#6c8ebf;" vertex="1" parent="1">
          <mxGeometry x="1988" y="349" width="270" height="66" as="geometry" />
        </mxCell>
        <mxCell id="7CV5jfCz6AHtWRIZSKS_-110" value="&lt;font style=&quot;font-size: 20px;&quot;&gt;响应 RaffleAwardEntity（奖品ID，奖品配置信息，排序编号） 实体&lt;/font&gt;" style="rounded=0;whiteSpace=wrap;html=1;fillColor=#dae8fc;strokeColor=#6c8ebf;" vertex="1" parent="1">
          <mxGeometry x="1329" y="1404" width="270" height="66" as="geometry" />
        </mxCell>
      </root>
    </mxGraphModel>
  </diagram>
</mxfile>
